#!OML:ASF X:\für Bonn\!DataBase\2005_08_10_Bjorn_Final\c3d\bjorn.ASF
:FULLY-SPECIFIED
:DEGREES
61
root -14.121 18.7539 -0.68815 1913.77 -86.9393 -475.234
lowerback -5.99012 5.07742 -0.0462612
upperback 7.04772 7.02612 -3.34208
thorax 11.3697 3.48181 -2.47089
lowerneck -8.4287 -6.20571 3.21694
upperneck 4.46307 -8.7177 0.915205
head 2.78521 -4.24596 -0.682549
rclavicle -3.57812e-015 -9.54166e-015
rhumerus 4.46261 -7.41839 -82.1525
rradius 79.3797
rwrist -27.3652
rhand -17.2461 9.41942
rfingers 7.12502
rthumb 8.99783 -20.3687
lclavicle -3.57812e-015 -9.54166e-015
lhumerus -29.3716 13.3465 78.7079
lradius 17.4737
lwrist -40.048
lhand -13.7766 -6.46026
lfingers 7.12502
lthumb 12.3445 23.1553
rfemur 18.9276 -0.651688 16.6546
rtibia 19.5788
rfoot -7.35268 17.3322
rtoes -7.15726
lfemur -29.1444 6.48751 -14.4492
ltibia 30.6476
lfoot 7.1356 -9.97422
ltoes -2.55777
62
root -14.2644 18.7715 -0.659833 1915.3 -87.0337 -476.788
lowerback -5.99139 5.16322 -0.347434
upperback 7.02745 7.18603 -3.52048
thorax 11.3441 3.54083 -2.47225
lowerneck -8.38292 -6.3639 3.20561
upperneck 4.51861 -8.93676 1.04487
head 2.79934 -4.34978 -0.649125
rclavicle 7.95139e-016 2.8625e-014
rhumerus 5.66969 -8.18972 -81.8907
rradius 79.7659
rwrist -27.8167
rhand -17.6872 9.42228
rfingers 7.12502
rthumb 8.5722 -20.3837
lclavicle 7.95139e-016 2.8625e-014
lhumerus -29.1327 12.838 78.7915
lradius 17.7204
lwrist -39.408
lhand -13.8476 -6.36221
lfingers 7.12502
lthumb 12.276 23.2575
rfemur 18.5751 -0.443928 16.4911
rtibia 20.7641
rfoot -6.28542 16.9462
rtoes -6.4119
lfemur -28.9276 6.52521 -14.6738
ltibia 31.1979
lfoot 6.59933 -10.2388
ltoes -1.96546
63
root -14.4058 18.79 -0.632337 1916.37 -87.0956 -477.869
lowerback -5.98957 5.22474 -0.586986
upperback 6.99331 7.30598 -3.70048
thorax 11.307 3.58614 -2.51658
lowerneck -8.35018 -6.48866 3.18197
upperneck 4.64031 -9.11203 1.17079
head 2.83987 -4.43051 -0.615443
rclavicle -9.54166e-014 4.13472e-014
rhumerus 6.89647 -8.91834 -81.6841
rradius 80.0562
rwrist -28.1811
rhand -18.1558 9.54236
rfingers 7.12502
rthumb 8.11993 -20.2816
lclavicle -9.54166e-014 4.13472e-014
lhumerus -28.9311 12.383 78.8147
lradius 18.0115
lwrist -38.8137
lhand -13.8168 -6.29734
lfingers 7.12502
lthumb 12.3058 23.3206
rfemur 18.1735 -0.308421 16.37
rtibia 21.9699
rfoot -5.22778 16.4935
rtoes -6.35698
lfemur -28.6867 6.57418 -14.8551
ltibia 31.6924
lfoot 5.98846 -10.5151
ltoes -1.68624
64
root -14.5433 18.81 -0.605633 1917.09 -87.1895 -478.6
lowerback -5.9802 5.27535 -0.835514
upperback 6.96011 7.41223 -3.89572
thorax 11.2667 3.62472 -2.5755
lowerneck -8.28053 -6.62203 3.13901
upperneck 4.70813 -9.29699 1.33558
head 2.85833 -4.51652 -0.563687
rclavicle -4.6118e-014 6.36111e-015
rhumerus 8.16676 -9.66426 -81.5162
rradius 80.236
rwrist -28.4692
rhand -18.5853 9.737
rfingers 7.12502
rthumb 7.7054 -20.1026
lclavicle -4.6118e-014 6.36111e-015
lhumerus -28.6987 11.9643 78.8133
lradius 18.3
lwrist -38.2505
lhand -13.9161 -6.21652
lfingers 7.12502
lthumb 12.21 23.4071
rfemur 17.7381 -0.208465 16.2347
rtibia 23.2021
rfoot -4.14666 15.9928
rtoes -6.3972
lfemur -28.4121 6.5565 -15.0445
ltibia 32.101
lfoot 5.36351 -10.7207
ltoes -1.92191
65
root -14.6781 18.832 -0.580746 1918.03 -87.2517 -479.537
lowerback -5.97537 5.33453 -1.05749
upperback 6.93071 7.52696 -4.09256
thorax 11.2381 3.66946 -2.64894
lowerneck -8.24609 -6.75212 3.09653
upperneck 4.77482 -9.48058 1.51543
head 2.88435 -4.6011 -0.508853
rclavicle 5.32743e-014 7.95139e-015
rhumerus 9.48732 -10.4466 -81.3878
rradius 80.3702
rwrist -28.7893
rhand -18.8906 9.83926
rfingers 7.12502
rthumb 7.41072 -20.0109
lclavicle 5.32743e-014 7.95139e-015
lhumerus -28.4678 11.3977 78.8641
lradius 18.6408
lwrist -37.3974
lhand -14.1373 -6.16311
lfingers 7.12502
lthumb 11.9967 23.4731
rfemur 17.255 -0.172732 16.1035
rtibia 24.4597
rfoot -3.08021 15.4708
rtoes -7.05082
lfemur -28.1008 6.62662 -15.22
ltibia 32.4157
lfoot 4.69407 -10.9764
ltoes -2.64237
